PathFileType	4	(x/y/z)	S09_M20_T07
DataRate	CameraRate	NumFrames	NumMarkers	Units	OrigDataRate	OrigDataStartFrame	OrigNumFrames
240	240	10	51	mm	240	499	570
Frame#	Time	Sternum			R.Acromium			L.Acromium			Top.Head			R.ASIS			L.ASIS			R.PSIS			L.PSIS			R.Great.Tro			L.Great.Tro			R.Iliac.Crest			L.Iliac.Crest			V.Sacral			R.Thigh.Upper.Post			R.Thigh.Lower.Ant			R.Thigh.Lower.Post			R.Thigh.Upper.Ant			R.Knee.Lat			R.Knee.Med			R.Shank.Upper.Post			R.Shank.Lower.Ant			R.Shank.Lower.Post			R.Shank.Upper.Ant			R.Ankle.Lat			R.Ankle.Med			R.Heel.Upper			R.Heel.Med			R.Heel.Lat			R.Toe.Lat			R.Toe.Med			R.Toe.Tip			L.Thigh.Upper.Post			L.Thigh.Lower.Ant			L.Thigh.Lower.Post			L.Thigh.Upper.Ant			L.Knee.Lat			L.Knee.Med			L.Shank.Upper.Post			L.Shank.Lower.Ant			L.Shank.Lower.Post			L.Shank.Upper.Ant			L.Ankle.Lat			L.Ankle.Med			L.Heel.Upper			L.Heel.Med			L.Heel.Lat			L.Toe.Lat			L.Toe.Med			L.Toe.Tip			Cervical.Spine			Back			
		X1	Y1	Z1	X2	Y2	Z2	X3	Y3	Z3	X4	Y4	Z4	X5	Y5	Z5	X6	Y6	Z6	X7	Y7	Z7	X8	Y8	Z8	X9	Y9	Z9	X10	Y10	Z10	X11	Y11	Z11	X12	Y12	Z12	X13	Y13	Z13	X14	Y14	Z14	X15	Y15	Z15	X16	Y16	Z16	X17	Y17	Z17	X18	Y18	Z18	X19	Y19	Z19	X20	Y20	Z20	X21	Y21	Z21	X22	Y22	Z22	X23	Y23	Z23	X24	Y24	Z24	X25	Y25	Z25	X26	Y26	Z26	X27	Y27	Z27	X28	Y28	Z28	X29	Y29	Z29	X30	Y30	Z30	X31	Y31	Z31	X32	Y32	Z32	X33	Y33	Z33	X34	Y34	Z34	X35	Y35	Z35	X36	Y36	Z36	X37	Y37	Z37	X38	Y38	Z38	X39	Y39	Z39	X40	Y40	Z40	X41	Y41	Z41	X42	Y42	Z42	X43	Y43	Z43	X44	Y44	Z44	X45	Y45	Z45	X46	Y46	Z46	X47	Y47	Z47	X48	Y48	Z48	X49	Y49	Z49	X50	Y50	Z50	X51	Y51	Z51	

499	2.075	1694.4	1175.6	257.57	1556.2	1412.1	409.04	1568.7	1425.5	99.918	1529.2	1710.3	245.71	1653.9	1004.7	354.86	1645.4	1007.8	108.16	1430.3	1021.5	287.1	1434.7	1031.5	197.09	1584.1	916.01	433.07	1570.1	916.78	44.995	1562	1079.2	404.91	1538	1103.8	78.462	1412.3	992.05	235.3	1689.7	687.23	421.89	1797.9	628.84	382.72	1725.6	601.77	398.15	1756.9	707.39	405.19	1810.9	551.46	381.26	1807.1	532.63	257.97	1796	367.47	398.77	1879.5	331.72	394.58	1818.8	294.16	393.69	1851.7	400.09	401.51	1907.1	123.13	390.65	1939.6	145.09	307.69	1865.9	75.403	330.8	1895	52.547	306.24	1876.9	49.046	368.46	2015.4	110	441.52	2067.3	142.34	346.13	2094.5	175.86	395.9	1498.5	660.03	112.35	1575.4	559.85	117.43	1508	572.42	136.51	1567.3	644.39	89.048	1552	482.14	134.3	1577	500.72	264.82	1468.7	368.57	130.58	1502.4	264.97	150.88	1445.3	295.69	141.95	1524.7	339.31	139.67	1398.9	108.9	176.04	1409.9	100.02	270.46	1319.1	78.957	230.49	1329.6	51.067	260.55	1315.8	53.007	200.56	1485.8	43.235	139.04	1528.1	35.723	245.77	1577.7	49.944	185.28	NaN	NaN	NaN	1431.8	1201.3	234.4
500	2.0792	1699	1174.9	257.39	1561.2	1411.4	409.24	1573.5	1425.1	100.19	1534.1	1709.7	246.14	1658.9	1003.9	354.69	1649.4	1007.3	108.02	1435	1020.8	287.75	1439.1	1030.9	197.75	1589.2	915.2	433.1	1573.6	916.36	45.068	1567.2	1078.4	405.07	1542	1103.3	78.739	1416.8	991.46	235.99	1694.5	686.41	421.79	1802.8	628.1	382.39	1730.4	600.97	397.92	1761.7	706.61	404.98	1816	551.16	380.89	1811.9	532.11	257.51	1804.3	367.12	398.75	1888.5	332.86	394.3	1828.5	294.23	393.71	1859.5	400.72	401.19	1919.9	124.7	390.68	1951.6	147.15	307.52	1879.3	76.078	331.16	1908.8	53.735	306.41	1891.1	49.964	368.73	2028.8	113.66	440.96	2079.5	146.97	345.33	2106.2	181.07	394.94	1501.5	659.84	112.68	1578	559.38	117.34	1510.7	572.09	136.75	1570	643.99	89.121	1554.3	481.72	134.2	1580	500.08	264.65	1470.4	368.58	130.66	1503.6	264.79	150.87	1446.7	295.83	142.13	1526.2	338.99	139.56	1399.3	109.24	176.26	1410.4	100.31	270.64	1319.2	79.343	230.86	1329.8	51.313	260.81	1316	53.439	200.8	1485.8	43.244	139.07	1528.2	35.62	245.76	1577.9	49.634	185.21	NaN	NaN	NaN	1436.4	1200.8	234.92
501	2.0833	1703.6	1174.2	257.22	1566.3	1410.6	409.45	1578.2	1424.7	100.48	1539	1709.1	246.57	1663.9	1003.1	354.54	1653.5	1006.7	107.9	1439.7	1020.1	288.41	1443.4	1030.3	198.41	1594.2	914.37	433.12	1577.2	915.93	45.138	1572.4	1077.6	405.25	1546	1102.8	79.021	1421.3	990.85	236.69	1699.4	685.56	421.69	1807.6	627.34	382.07	1735.3	600.16	397.71	1766.5	705.81	404.78	1821.1	550.82	380.54	1816.7	531.56	257.08	1812.6	366.79	398.74	1897.3	333.98	394.03	1838	294.31	393.74	1867.2	401.33	400.89	1932.5	126.3	390.7	1963.5	149.23	307.34	1892.5	76.828	331.48	1922.3	54.998	306.54	1905	50.96	368.96	2041.9	117.33	440.39	2091.4	151.58	344.54	2117.7	186.23	394.01	1504.5	659.66	113.01	1580.6	558.91	117.27	1513.4	571.77	137	1572.7	643.59	89.192	1556.7	481.3	134.11	1583.1	499.44	264.47	1472.2	368.6	130.74	1504.8	264.62	150.84	1448.1	295.97	142.32	1527.7	338.69	139.43	1399.7	109.6	176.47	1410.9	100.61	270.82	1319.4	79.757	231.22	1330	51.59	261.07	1316.1	53.895	201.04	1485.9	43.255	139.1	1528.3	35.525	245.76	1578.1	49.324	185.14	NaN	NaN	NaN	1440.9	1200.3	235.46
502	2.0875	1708.2	1173.5	257.06	1571.5	1409.9	409.67	1583	1424.3	100.8	1543.9	1708.4	247.02	1668.9	1002.2	354.41	1657.5	1006.1	107.79	1444.4	1019.4	289.07	1447.8	1029.7	199.09	1599.3	913.51	433.14	1580.8	915.49	45.206	1577.6	1076.8	405.44	1550	1102.3	79.309	1425.8	990.22	237.39	1704.3	684.71	421.61	1812.4	626.56	381.77	1740.2	599.34	397.52	1771.4	705	404.6	1826.2	550.46	380.21	1821.5	530.97	256.67	1820.7	366.46	398.73	1906	335.08	393.78	1847.3	294.42	393.8	1874.8	401.91	400.61	1945	127.93	390.68	1975.1	151.34	307.15	1905.6	77.646	331.76	1935.6	56.326	306.64	1918.7	52.024	369.14	2054.7	120.98	439.83	2103	156.14	343.77	2128.9	191.34	393.1	1507.5	659.48	113.35	1583.2	558.44	117.19	1516.1	571.46	137.24	1575.4	643.2	89.258	1559	480.89	134.02	1586.1	498.79	264.28	1473.9	368.63	130.82	1506.1	264.45	150.81	1449.6	296.11	142.52	1529.3	338.39	139.29	1400.1	109.98	176.68	1411.5	100.94	270.99	1319.6	80.203	231.58	1330.2	51.902	261.32	1316.3	54.378	201.27	1486	43.267	139.14	1528.5	35.437	245.76	1578.3	49.015	185.06	NaN	NaN	NaN	1445.5	1199.7	236
503	2.0917	1712.8	1172.8	256.89	1576.6	1409.1	409.9	1587.8	1423.9	101.13	1548.8	1707.7	247.49	1674	1001.4	354.29	1661.6	1005.6	107.69	1449.2	1018.7	289.74	1452.3	1029.1	199.77	1604.4	912.64	433.17	1584.4	915.06	45.274	1582.8	1075.9	405.64	1554	1101.7	79.601	1430.4	989.57	238.09	1709.2	683.85	421.54	1817.3	625.77	381.47	1745.1	598.51	397.34	1776.3	704.18	404.42	1831.4	550.07	379.9	1826.3	530.35	256.29	1828.8	366.14	398.73	1914.5	336.16	393.55	1856.6	294.54	393.86	1882.3	402.48	400.35	1957.2	129.58	390.64	1986.5	153.45	306.95	1918.4	78.522	331.99	1948.7	57.711	306.69	1932.2	53.145	369.27	2067.2	124.61	439.27	2114.4	160.64	343.02	2139.9	196.36	392.22	1510.6	659.31	113.7	1585.8	557.97	117.13	1518.8	571.16	137.48	1578.1	642.82	89.32	1561.3	480.48	133.93	1589.2	498.15	264.08	1475.7	368.66	130.89	1507.3	264.3	150.77	1451	296.26	142.73	1530.8	338.1	139.14	1400.5	110.38	176.88	1412	101.27	271.16	1319.8	80.684	231.93	1330.4	52.253	261.56	1316.5	54.892	201.51	1486.1	43.281	139.16	1528.6	35.359	245.76	1578.4	48.706	184.98	NaN	NaN	NaN	1450.1	1199.1	236.55
504	2.0958	1717.4	1172.1	256.74	1581.7	1408.4	410.14	1592.6	1423.5	101.49	1553.8	1707	247.96	1679.1	1000.6	354.18	1665.7	1005	107.61	1454	1018	290.41	1456.7	1028.5	200.46	1609.5	911.75	433.2	1588	914.62	45.346	1588.1	1075.1	405.86	1558	1101.2	79.897	1434.9	988.9	238.8	1714.1	682.99	421.49	1822.2	624.97	381.19	1750	597.67	397.18	1781.2	703.35	404.25	1836.5	549.67	379.61	1831.1	529.7	255.94	1836.8	365.83	398.73	1923	337.2	393.34	1865.7	294.67	393.94	1889.7	403.02	400.12	1969.1	131.24	390.57	1997.7	155.56	306.74	1931	79.447	332.18	1961.6	59.142	306.7	1945.4	54.31	369.34	2079.5	128.18	438.72	2125.6	165.08	342.29	2150.5	201.27	391.36	1513.6	659.15	114.05	1588.4	557.51	117.07	1521.6	570.89	137.72	1580.8	642.44	89.381	1563.7	480.08	133.84	1592.2	497.51	263.88	1477.5	368.7	130.97	1508.5	264.16	150.72	1452.5	296.41	142.95	1532.4	337.82	138.97	1400.9	110.8	177.07	1412.5	101.63	271.32	1320.1	81.202	232.27	1330.6	52.649	261.8	1316.7	55.439	201.74	1486.2	43.296	139.19	1528.8	35.289	245.75	1578.6	48.398	184.89	NaN	NaN	NaN	1454.7	1198.5	237.11
505	2.1	1722	1171.4	256.58	1586.9	1407.6	410.39	1597.4	1423.2	101.87	1558.7	1706.3	248.45	1684.1	999.72	354.09	1669.9	1004.4	107.54	1458.8	1017.2	291.08	1461.2	1027.8	201.17	1614.7	910.85	433.23	1591.7	914.18	45.426	1593.3	1074.2	406.08	1562	1100.6	80.197	1439.6	988.22	239.52	1719.1	682.14	421.44	1827.2	624.17	380.91	1755	596.84	397.04	1786.1	702.52	404.1	1841.6	549.25	379.35	1835.9	529.03	255.62	1844.6	365.51	398.74	1931.3	338.22	393.14	1874.7	294.81	394.03	1897	403.53	399.91	1980.8	132.88	390.48	2008.7	157.66	306.52	1943.3	80.412	332.31	1974.1	60.61	306.66	1958.3	55.509	369.37	2091.4	131.7	438.17	2136.5	169.42	341.57	2161	206.07	390.54	1516.7	658.99	114.42	1591	557.05	117.01	1524.4	570.64	137.96	1583.5	642.07	89.444	1566	479.68	133.75	1595.3	496.87	263.68	1479.2	368.76	131.04	1509.7	264.03	150.67	1454	296.57	143.18	1533.9	337.54	138.79	1401.3	111.23	177.25	1413	102	271.47	1320.3	81.76	232.59	1330.9	53.092	262.03	1316.9	56.023	201.97	1486.3	43.312	139.21	1528.9	35.229	245.74	1578.8	48.09	184.8	NaN	NaN	NaN	1459.3	1198	237.68
506	2.1042	1726.7	1170.6	256.43	1592.1	1406.9	410.65	1602.2	1422.8	102.27	1563.7	1705.6	248.94	1689.2	998.87	354.01	1674.1	1003.8	107.49	1463.6	1016.4	291.76	1465.7	1027.2	201.88	1619.8	909.94	433.28	1595.4	913.74	45.517	1598.6	1073.3	406.31	1566	1100.1	80.502	1444.2	987.52	240.25	1724.2	681.29	421.41	1832.2	623.38	380.65	1760	596	396.92	1791.1	701.7	403.95	1846.8	548.83	379.11	1840.8	528.33	255.32	1852.4	365.2	398.75	1939.5	339.19	392.97	1883.5	294.95	394.11	1904.2	404.02	399.72	1992.3	134.52	390.36	2019.4	159.74	306.3	1955.4	81.407	332.39	1986.4	62.103	306.57	1971	56.728	369.34	2103.1	135.13	437.64	2147.1	173.66	340.88	2171.1	210.73	389.75	1519.7	658.85	114.81	1593.6	556.6	116.96	1527.2	570.4	138.2	1586.2	641.71	89.513	1568.3	479.3	133.66	1598.3	496.23	263.47	1481	368.82	131.11	1511	263.92	150.61	1455.6	296.73	143.41	1535.4	337.28	138.61	1401.8	111.69	177.43	1413.6	102.39	271.61	1320.6	82.361	232.9	1331.1	53.587	262.25	1317.1	56.646	202.19	1486.4	43.329	139.23	1529.1	35.178	245.73	1579	47.784	184.7	NaN	NaN	NaN	1463.9	1197.3	238.25
507	2.1083	1731.3	1169.9	256.29	1597.2	1406.1	410.92	1607.1	1422.4	102.68	1568.7	1704.9	249.45	1694.3	998.03	353.95	1678.3	1003.3	107.45	1468.5	1015.6	292.45	1470.2	1026.5	202.61	1625	909.01	433.33	1599.2	913.3	45.626	1603.9	1072.5	406.56	1570.1	1099.5	80.814	1448.9	986.81	241	1729.3	680.45	421.4	1837.2	622.58	380.4	1765.1	595.18	396.82	1796.2	700.88	403.81	1852	548.39	378.89	1845.7	527.61	255.05	1860.2	364.9	398.76	1947.6	340.12	392.81	1892.2	295.1	394.2	1911.4	404.47	399.56	2003.5	136.12	390.21	2030	161.78	306.06	1967.2	82.42	332.42	1998.4	63.609	306.44	1983.4	57.956	369.25	2114.5	138.46	437.12	2157.4	177.78	340.2	2181	215.24	388.98	1522.8	658.72	115.2	1596.2	556.15	116.92	1530	570.19	138.44	1588.9	641.37	89.591	1570.7	478.92	133.57	1601.4	495.59	263.25	1482.8	368.89	131.17	1512.2	263.81	150.55	1457.1	296.91	143.64	1537	337.03	138.42	1402.2	112.16	177.6	1414.1	102.8	271.74	1320.9	83.007	233.19	1331.4	54.136	262.46	1317.3	57.312	202.41	1486.5	43.347	139.24	1529.3	35.137	245.7	1579.2	47.478	184.61	NaN	NaN	NaN	1468.6	1196.7	238.83
508	2.1125	1736	1169.1	256.14	1602.4	1405.3	411.21	1611.9	1422.1	103.12	1573.7	1704.2	249.96	1699.5	997.18	353.89	1682.5	1002.7	107.43	1473.3	1014.8	293.14	1474.8	1025.9	203.36	1630.2	908.08	433.39	1603	912.86	45.757	1609.2	1071.6	406.81	1574.1	1098.9	81.133	1453.6	986.09	241.75	1734.4	679.62	421.39	1842.3	621.8	380.16	1770.2	594.37	396.75	1801.3	700.08	403.68	1857.2	547.96	378.69	1850.5	526.88	254.82	1867.8	364.6	398.77	1955.5	341.01	392.68	1900.8	295.25	394.29	1918.4	404.89	399.41	2014.5	137.68	390.04	2040.3	163.79	305.81	1978.8	83.442	332.4	2010.2	65.116	306.27	1995.5	59.18	369.12	2125.6	141.68	436.62	2167.5	181.76	339.53	2190.7	219.58	388.25	1525.9	658.59	115.61	1598.8	555.71	116.88	1532.8	570	138.68	1591.7	641.03	89.676	1573	478.55	133.48	1604.4	494.96	263.03	1484.7	368.98	131.23	1513.5	263.73	150.49	1458.7	297.1	143.86	1538.6	336.79	138.23	1402.7	112.66	177.75	1414.7	103.23	271.86	1321.2	83.701	233.46	1331.6	54.741	262.67	1317.6	58.022	202.61	1486.6	43.367	139.25	1529.4	35.105	245.67	1579.4	47.175	184.51	NaN	NaN	NaN	1473.2	1196.1	239.42
